<?xml version="1.0" encoding="utf-8" standalone="yes"?>
<!DOCTYPE svg PUBLIC "-//W3C//DTD SVG 1.1//EN" "http://www.w3.org/Graphics/SVG/1.1/DTD/svg11.dtd">
<svg width="917" height="550" viewBox="0 0 917 550" style="fill:none;stroke:none;fill-rule:evenodd;clip-rule:evenodd;stroke-linecap:round;stroke-linejoin:round;stroke-miterlimit:1.5;" version="1.1" xmlns="http://www.w3.org/2000/svg" xmlns:xlink="http://www.w3.org/1999/xlink"><style class="text-font-style fontImports" data-font-family="Roboto">@import url('https://fonts.googleapis.com/css2?family=Roboto:wght@400;700&amp;display=block');</style><g id="items" style="isolation: isolate"><g id="blend" style="mix-blend-mode: normal"><g id="g-root-sy_5_cu_dhbeb1z0hpu2-fill" data-item-order="-260873" transform="translate(717.466064453125, 101.17376708984375)"></g><g id="g-root-sy_5_cu_1_1urrwvhz0houb-fill" data-item-order="-260871" transform="translate(758.1494140625, 338)"></g><g id="g-root-sy_4_cu_18lavcdz0ho24-fill" data-item-order="-260867" transform="translate(537.309814453125, 153.29974365234375)"></g><g id="g-root-sy_4_cu_1_v9ucz1z0hpn1-fill" data-item-order="-260865" transform="translate(578.1494140625, 338)"></g><g id="g-root-sy_3_cu_hz0botz0ho26-fill" data-item-order="-260861" transform="translate(382.8690490722656, 198.5340576171875)"></g><g id="g-root-sy_3_cu_1_4njtbhz0hpn3-fill" data-item-order="-260859" transform="translate(398.1484375, 338)"></g><g id="g-root-sy_2_cu_1ut0v1pz0hr0g-fill" data-item-order="-260855" transform="translate(227.16775512695312, 246.8966064453125)"></g><g id="g-root-sy_2_cu_1_18mjtilz0hq89-fill" data-item-order="-260853" transform="translate(218.1494140625, 338.000244140625)"></g><g id="g-root-sy_1_cu_i099v1z0hq8a-fill" data-item-order="-260849" transform="translate(45.18135070800781, 298.794189453125)"></g><g id="g-root-sy_1_cu_1_4pf8ktz0honf-fill" data-item-order="-260847" transform="translate(38.1494140625, 338.00006103515625)"></g><g id="g-root-tx_raliseru_8ydir1z0j3m1-fill" data-item-order="0" transform="translate(296, 38)"><g id="tx_raliseru_8ydir1z0j3m1-fill" stroke="none" fill="#f4f4f4"><g><text style="font: 20px &quot;Roboto&quot;, sans-serif; white-space: pre;" font-size="20px" font-family="'Roboto', sans-serif"><tspan x="15.13" y="34" dominant-baseline="ideographic">Réaliser une Intégration MLOps</tspan></text></g></g></g><g id="g-root-ic_time_hznuq5yr1szy-fill" data-item-order="0" transform="translate(62, 362.00006103515625)"></g><g id="g-root-ic_3_m9v331wipjij-fill" data-item-order="0" transform="translate(242, 362)"></g><g id="g-root-ic_arch_qqa0bxz0lxcc-fill" data-item-order="0" transform="translate(422, 362)"></g><g id="g-root-ic_box_18isyzxz0kjrf-fill" data-item-order="0" transform="translate(602, 362)"></g><g id="g-root-ic_2_1uo12ctz0j4zu-fill" data-item-order="0" transform="translate(782, 362)"></g><g id="g-root-tx_ingestio_m97k19z0j56w-fill" data-item-order="0" transform="translate(14, 434)"><g id="tx_ingestio_m97k19z0j56w-fill" stroke="none" fill="#f4f4f4"><g><text style="font: 20px &quot;Roboto&quot;, sans-serif; white-space: pre;" font-size="20px" font-family="'Roboto', sans-serif"><tspan x="23.69" y="34" dominant-baseline="ideographic">Ingestion et </tspan><tspan x="15.31" y="58" dominant-baseline="ideographic">Prétraitement</tspan></text></g></g></g><g id="g-root-tx_entranem_140hkj1z0j2tr-fill" data-item-order="0" transform="translate(182, 434)"><g id="tx_entranem_140hkj1z0j2tr-fill" stroke="none" fill="#f4f4f4"><g><text style="font: 20px &quot;Roboto&quot;, sans-serif; white-space: pre;" font-size="20px" font-family="'Roboto', sans-serif"><tspan x="12.59" y="34" dominant-baseline="ideographic">Entraînement du </tspan><tspan x="52.41" y="58" dominant-baseline="ideographic">Modèle</tspan></text></g></g></g><g id="g-root-tx_gestiond_1ums46lz0j2tq-fill" data-item-order="0" transform="translate(380, 434)"><g id="tx_gestiond_1ums46lz0j2tq-fill" stroke="none" fill="#f4f4f4"><g><text style="font: 20px &quot;Roboto&quot;, sans-serif; white-space: pre;" font-size="20px" font-family="'Roboto', sans-serif"><tspan x="14.73" y="34" dominant-baseline="ideographic">Gestion des </tspan><tspan x="26.2" y="58" dominant-baseline="ideographic">Artefacts</tspan></text></g></g></g><g id="g-root-tx_dploieme_m7ylv1z0j30t-fill" data-item-order="0" transform="translate(542, 434)"><g id="tx_dploieme_m7ylv1z0j30t-fill" stroke="none" fill="#f4f4f4"><g><text style="font: 20px &quot;Roboto&quot;, sans-serif; white-space: pre;" font-size="20px" font-family="'Roboto', sans-serif"><tspan x="15.66" y="34" dominant-baseline="ideographic">Déploiement du </tspan><tspan x="52.41" y="58" dominant-baseline="ideographic">Modèle</tspan></text></g></g></g><g id="g-root-tx_orchestr_1lz9a25z0hqtg-fill" data-item-order="0" transform="translate(722, 434)"><g id="tx_orchestr_1lz9a25z0hqtg-fill" stroke="none" fill="#f4f4f4"><g><text style="font: 20px &quot;Roboto&quot;, sans-serif; white-space: pre;" font-size="20px" font-family="'Roboto', sans-serif"><tspan x="14.23" y="34" dominant-baseline="ideographic">Orchestration et </tspan><tspan x="46.18" y="58" dominant-baseline="ideographic">Outillage</tspan></text></g></g></g><g id="g-root-sy_5_cu_dhbeb1z0hpu2-stroke" data-item-order="-260873" transform="translate(717.466064453125, 101.17376708984375)"><g id="sy_5_cu_dhbeb1z0hpu2-stroke" fill="none" stroke-linecap="round" stroke-linejoin="round" stroke-miterlimit="4" stroke="#fb6762" stroke-width="2"><g><path d="M 107.451539 105.279946C 100.610901 96.987679 100.574646 84.927453 109.203309 77.809288C 122.153077 67.126473 147.099854 69.989327 149.809388 70.337197C 149.635865 73.0635 147.704041 98.099541 134.754273 108.782372C 126.125611 115.900521 114.292176 113.572213 107.451539 105.279946ZM 107.451172 105.279641L 145.002686 74.301827M 141.446412 85.066445C 139.267457 84.100258 133.443055 84.298714 130.201905 86.51191C 132.990845 83.750481 134.292969 78.070107 133.758545 75.747139M 137.258973 94.509392C 133.890259 92.411141 125.67688 91.058037 121.704407 93.522149C 124.878846 90.09063 125.111695 81.769738 123.692139 78.063546M 130.845582 103.485146C 126.594727 100.813912 116.261475 99.041863 111.289246 102.113961C 115.250611 97.816506 115.475281 87.334771 113.660828 82.653679M 77.615357 86.093422C 84.455994 77.801156 84.492249 65.740929 75.863587 58.622765C 62.913819 47.939949 37.967041 50.802811 35.257508 51.150673C 35.431031 53.876976 37.362854 78.913018 50.312623 89.595849C 58.941285 96.713997 70.77472 94.385689 77.615357 86.093422ZM 77.615723 86.093117L 40.064209 55.115304M 43.620484 65.879921C 45.799439 64.913735 51.623841 65.112191 54.864991 67.325387C 52.07605 64.563958 50.773926 58.883584 51.30835 56.560616M 47.807923 75.322869C 51.176636 73.224617 59.390015 71.871514 63.362488 74.335625C 60.18805 70.904107 59.955201 62.583214 61.374756 58.877022M 54.221253 84.298638C 58.472107 81.627404 68.805359 79.855355 73.777588 82.927453C 69.816224 78.629998 69.591553 68.148262 71.406006 63.467171M 76.560486 184.564492C 68.95929 176.963326 56.957642 175.775597 49.048096 183.685158C 37.177491 195.555703 37.645203 220.661812 37.732728 223.39222C 40.463135 223.479775 65.569275 223.947457 77.43982 212.076912C 85.349366 204.167336 84.161683 192.165688 76.560486 184.564492ZM 76.561341 184.564431L 42.139405 218.986397M 53.193787 216.474221C 52.440125 214.21296 53.193787 208.434121 55.70636 205.419106C 52.691285 207.931588 46.912537 208.685372 44.651185 207.931588M 62.992005 213.20823C 61.224976 209.654519 60.662354 201.349495 63.494507 197.630471C 59.775574 200.462716 51.470459 199.900002 47.916749 198.133004M 72.540101 207.680306C 70.286988 203.193856 69.509705 192.738595 73.042603 188.082436C 68.386475 191.615334 57.931214 190.838082 53.444764 188.584969M 108.956299 192.462777C 113.877137 188.515328 120.954285 188.59092 125.061829 193.711281C 131.226441 201.396035 129.346192 216.011635 129.12024 217.598824C 127.521851 217.475106 112.846375 216.140419 106.681702 208.455666C 102.574219 203.335305 104.035462 196.410256 108.956299 192.462777ZM 108.956238 192.462838L 125.053467 212.529366M 116.50354 211.009194C 117.653565 209.217843 118.439637 204.82267 117.147156 202.673989C 118.964356 204.401741 123.425415 204.587685 125.423584 203.853585M 110.472901 205.816964C 111.922852 203.578072 112.939515 198.101326 111.343567 195.437508C 113.59784 197.57322 119.164612 197.768776 121.664734 196.838936M 104.395874 53.863533C 99.565125 49.806359 98.26001 42.85019 102.48169 37.823517C 108.817688 30.279419 123.519471 29.275231 125.12024 29.1875C 125.310425 30.779381 126.86139 45.433579 120.525391 52.977684C 116.303711 58.004342 109.226685 57.920708 104.395874 53.863533ZM 104.395386 53.863564L 120.940003 34.164277M 121.116944 42.844796C 119.135804 42.065918 114.671692 42.151467 112.816102 43.837944C 114.156556 41.718842 113.469544 37.307091 112.360108 35.490304M 117.199585 49.773507C 114.72107 48.787652 109.151185 48.857872 106.849488 50.94233C 108.504883 48.315072 107.611817 42.816918 106.212586 40.545968M 80.669068 34.676033C 85.499817 30.618859 86.804932 23.66269 82.583252 18.636017C 76.247254 11.091919 61.545472 10.087731 59.944703 10C 59.754517 11.591881 58.203553 26.246079 64.539551 33.790177C 68.761231 38.816849 75.838257 38.733208 80.669068 34.676033ZM 80.669434 34.676049L 64.124817 14.976754M 63.948975 23.657296C 65.930115 22.878418 70.394227 22.963967 72.249817 24.650444C 70.909363 22.531342 71.596375 18.119591 72.705811 16.302804M 67.865296 30.586007C 70.343811 29.600152 75.913697 29.670372 78.215394 31.75483C 76.559998 29.127572 77.453064 23.629418 78.852295 21.358468M 111.402283 161.804314C 105.854432 149.34124 109.906556 134.582192 122.875245 128.809288C 142.338379 120.145379 171.869935 132.119606 175.064942 133.465294C 173.926697 136.739998 163.060486 166.696923 143.597352 175.360817C 130.628724 181.133736 116.950196 174.267388 111.402283 161.804314ZM 111.402588 161.804177L 167.84137 136.680794M 159.836304 148.634652C 157.500123 146.713021 150.310853 144.977395 145.595887 146.58268C 149.944092 144.15345 153.465699 137.64991 153.601319 134.627999M 151.508484 158.758751C 148.102051 155.048821 138.518677 150.604393 132.824219 152.268151C 137.871399 149.150353 140.982544 139.055047 140.505555 134.041085M 140.616394 167.555947C 136.32605 162.845833 124.292786 157.169106 117.169495 159.236748C 123.472962 155.327431 127.307984 142.587044 126.679383 136.246926M 73.662659 142.616814C 79.210511 130.15374 75.158387 115.394692 62.189698 109.621788C 42.726563 100.957879 13.195008 112.932106 10 114.277794C 11.138245 117.552498 22.004456 147.509423 41.467591 156.173317C 54.436219 161.946236 68.114747 155.079888 73.662659 142.616814ZM 73.662171 142.616616L 17.223389 117.493233M 25.228638 129.447152C 27.56482 127.525521 34.75409 125.789895 39.469056 127.39518C 35.12085 124.96595 31.599244 118.46241 31.463624 115.440499M 33.556397 139.571251C 36.96283 135.861321 46.546204 131.416893 52.240662 133.080651C 47.193482 129.962853 44.082337 119.867547 44.559327 114.853585M 44.448487 148.36866C 48.738831 143.658547 60.772095 137.98182 67.895386 140.049462C 61.591919 136.140145 57.756897 123.399758 58.385499 117.059639M 90.978209 60.499389C 90.978209 50.957689 88.247409 41.544489 80.790609 34.715889C 91.004909 42.859689 93.987709 55.169589 94.163009 67.807289C 95.154909 64.641689 96.603209 60.019889 104.274509 53.903589C 98.251909 61.779989 94.297709 71.047089 94.297709 77.303889L 94.913809 118.503489C 96.402409 115.010389 100.713009 108.815489 107.826909 105.202189C 100.760809 110.787989 96.539409 122.048489 95.063809 128.533789L 95.755309 174.774389C 97.818809 171.163489 102.900009 165.189589 111.751909 161.747089C 102.908209 167.099889 95.755309 178.805389 95.888609 183.686789L 95.980709 189.846289C 97.969709 187.022189 103.065009 184.832789 109.506109 193.234689C 101.597309 184.677189 96.110009 192.618589 96.110009 198.495289L 96.832709 246.825589L 88.258409 246.825589L 89.095009 189.512089C 89.095009 184.659589 83.481509 176.899989 75.928409 185.072489C 82.124909 176.989889 87.075809 178.708989 89.213909 181.365589L 89.446809 165.412189C 89.583009 159.269589 82.589009 148.173189 73.314209 142.559489C 82.584009 146.164389 87.718709 152.545489 89.583009 156.081889L 90.248209 110.510689C 89.046509 104.299889 84.749709 91.951689 77.239209 86.014489C 84.806209 89.857889 89.201409 96.622289 90.402309 99.948989L 90.978209 60.499389Z"></path></g></g></g><g id="g-root-sy_5_cu_1_1urrwvhz0houb-stroke" data-item-order="-260871" transform="translate(758.1494140625, 338)"><g id="sy_5_cu_1_1urrwvhz0houb-stroke" fill="none" stroke-linecap="round" stroke-linejoin="round" stroke-miterlimit="4" stroke="#f4f4f4" stroke-width="2"><g><path d="M 10.0865 13.3142C 9.6373 11.631 10.9943 10 12.844 10L 90.8563 10C 92.706 10 94.063 11.631 93.6139 13.3142L 91.8349 19.9809C 91.5182 21.1676 90.3814 22 89.0774 22L 14.623 22C 13.3189 22 12.1821 21.1676 11.8655 19.9809L 10.0865 13.3142ZM 15.735352 22L 87.369352 22L 77.592952 79.7212C 77.327152 81.0462 76.160552 82 74.805552 82L 28.299152 82C 26.944152 82 25.777452 81.0462 25.511752 79.7212L 15.735352 22Z"></path></g></g></g><g id="g-root-sy_4_cu_18lavcdz0ho24-stroke" data-item-order="-260867" transform="translate(537.309814453125, 153.29974365234375)"><g id="sy_4_cu_18lavcdz0ho24-stroke" fill="none" stroke-linecap="round" stroke-linejoin="round" stroke-miterlimit="4" stroke="#f79438" stroke-width="2"><g><path d="M 77.928833 80.160813C 84.769471 71.868546 84.805726 59.808319 76.177063 52.690155C 63.227295 42.00734 38.280518 44.870194 35.570984 45.218064C 35.744507 47.944367 37.676331 72.980408 50.626099 83.663239C 59.254761 90.781388 71.088196 88.45308 77.928833 80.160813ZM 77.9292 80.160508L 40.377686 49.182694M 43.93396 59.947312C 46.112915 58.981125 51.937317 59.179581 55.178467 61.392777C 52.389527 58.631348 51.087403 52.950974 51.621827 50.628006M 48.121399 69.390259C 51.490113 67.292008 59.703492 65.938904 63.675965 68.403016C 60.501526 64.971497 60.268677 56.650605 61.688233 52.944413M 54.53479 78.366028C 58.785645 75.694794 69.118897 73.922745 74.091126 76.994843C 70.129761 72.697388 69.905091 62.215653 71.719544 57.534562M 109.270752 140.337784C 114.19159 136.390335 121.268738 136.465928 125.376282 141.586289C 131.540894 149.271042 129.660645 163.886643 129.434693 165.473832C 127.836304 165.350113 113.160828 164.015427 106.996155 156.330674C 102.888672 151.210312 104.349915 144.285263 109.270752 140.337784ZM 109.270691 140.336869L 125.36792 160.403397M 116.817994 158.884201C 117.968018 157.09285 118.75409 152.697678 117.461609 150.548996C 119.278809 152.276749 123.739869 152.462693 125.738038 151.728592M 110.787415 153.691971C 112.237366 151.45308 113.254029 145.976334 111.658082 143.312516C 113.912354 145.448227 119.479126 145.643784 121.979249 144.713944M 104.710328 48.219986C 99.879578 44.162812 98.574463 37.206635 102.796143 32.179978C 109.132142 24.63588 123.833924 23.631684 125.434693 23.543946C 125.624878 25.135834 127.175843 39.790024 120.839844 47.334137C 116.618165 52.360794 109.541138 52.277161 104.710328 48.219986ZM 104.709961 48.220002L 121.254578 28.520707M 121.431397 37.201249C 119.450257 36.422364 114.986145 36.50792 113.130555 38.194397C 114.471009 36.075287 113.783997 31.663544 112.674561 29.846756M 117.5141 44.12996C 115.035584 43.144104 109.465699 43.214325 107.164002 45.298783C 108.819397 42.671524 107.926331 37.173371 106.5271 34.90242M 80.983521 34.676041C 85.81427 30.618866 87.119385 23.66269 82.897706 18.636032C 76.561707 11.091935 61.859925 10.087738 60.259156 10C 60.06897 11.591889 58.518006 26.246079 64.854004 33.790192C 69.075684 38.816849 76.15271 38.733216 80.983521 34.676041ZM 80.983887 34.676056L 64.43927 14.976761M 64.262452 23.657303C 66.243592 22.878418 70.707703 22.963974 72.563294 24.650452C 71.22284 22.531342 71.909852 18.119599 73.019288 16.302811M 68.179749 30.586014C 70.658265 29.600159 76.22815 29.67038 78.529847 31.754837C 76.874451 29.127579 77.767518 23.629425 79.166749 21.358475M 111.716736 109.679322C 106.168885 97.216248 110.221009 82.457199 123.189698 76.684296C 142.652832 68.020386 172.184388 79.994614 175.379395 81.340302C 174.24115 84.615006 163.374939 114.57193 143.911805 123.235825C 130.943177 129.008744 117.264649 122.142395 111.716736 109.679322ZM 111.717041 109.679184L 168.155823 84.555802M 160.150757 96.509659C 157.814576 94.588028 150.625306 92.852402 145.91034 94.457688C 150.258545 92.028458 153.780152 85.524918 153.915772 82.503006M 151.822999 106.633759C 148.416565 102.923829 138.833191 98.479401 133.138733 100.143158C 138.185914 97.025361 141.297059 86.930054 140.820069 81.916092M 140.930909 115.430954C 136.640564 110.720841 124.6073 105.044114 117.484009 107.111756C 123.787476 103.202439 127.622498 90.462052 126.993897 84.121933M 73.662659 133.218369C 79.210511 120.75531 75.158387 105.996262 62.189698 100.223359C 42.726563 91.559449 13.195008 103.533677 10 104.879364C 11.138245 108.154068 22.004456 138.110978 41.467591 146.774887C 54.436219 152.547806 68.114747 145.681443 73.662659 133.218369ZM 73.976624 133.130295L 17.537842 108.006913M 25.544068 119.960831C 27.880249 118.0392 35.069519 116.303574 39.784485 117.90886C 35.43628 115.47963 31.914673 108.97609 31.779053 105.954178M 33.87085 130.083939C 37.277283 126.374024 46.860657 121.929596 52.555115 123.593354C 47.507935 120.475556 44.39679 110.380249 44.87378 105.366288M 44.76294 138.88234C 49.053284 134.172226 61.086548 128.495499 68.209839 130.563126C 61.906373 126.653824 58.071351 113.913437 58.699952 107.573319M 91.322963 58.441997C 91.322963 52.183697 88.717463 41.685597 81.106663 34.715897C 89.274763 41.228297 93.999263 51.797397 94.450663 62.249797C 95.442563 59.084097 96.917663 54.376997 104.588963 48.260697C 98.547063 56.162297 94.602163 65.849997 94.602163 71.716997L 95.382063 124.005197C 96.793263 120.748297 101.983763 113.542997 112.066363 109.621997C 101.952663 115.743397 95.602963 128.719297 95.532263 134.076697L 95.602963 138.815997C 96.924663 135.632797 102.562863 131.641997 109.820763 141.109297C 100.443563 130.962897 95.761163 143.584897 95.761163 149.419197L 96.436563 194.700397L 89.283463 194.700397L 89.858563 156.281497C 89.858563 150.228397 83.079063 138.793497 73.628663 133.073597C 83.075263 136.747197 88.227463 143.303997 90.000563 146.795197L 90.627263 104.922597C 90.627263 98.856597 85.205763 86.130997 77.553663 80.081897C 85.277763 84.005097 89.697063 90.971797 90.787463 94.219097L 91.322963 58.441997Z"></path></g></g></g><g id="g-root-sy_4_cu_1_v9ucz1z0hpn1-stroke" data-item-order="-260865" transform="translate(578.1494140625, 338)"><g id="sy_4_cu_1_v9ucz1z0hpn1-stroke" fill="none" stroke-linecap="round" stroke-linejoin="round" stroke-miterlimit="4" stroke="#f4f4f4" stroke-width="2"><g><path d="M 10.0865 13.3142C 9.6373 11.631 10.9943 10 12.844 10L 90.8563 10C 92.706 10 94.063 11.631 93.6139 13.3142L 91.8349 19.9809C 91.5182 21.1676 90.3814 22 89.0774 22L 14.623 22C 13.3189 22 12.1821 21.1676 11.8655 19.9809L 10.0865 13.3142ZM 15.735352 22L 87.369352 22L 77.592952 79.7212C 77.327152 81.0462 76.160552 82 74.805552 82L 28.299152 82C 26.944152 82 25.777452 81.0462 25.511752 79.7212L 15.735352 22Z"></path></g></g></g><g id="g-root-sy_3_cu_hz0botz0ho26-stroke" data-item-order="-260861" transform="translate(382.8690490722656, 198.5340576171875)"><g id="sy_3_cu_hz0botz0ho26-stroke" fill="none" stroke-linecap="round" stroke-linejoin="round" stroke-miterlimit="4" stroke="#a6da37" stroke-width="2"><g><path d="M 81.902069 78.986985C 75.061432 70.694718 75.025147 58.634491 83.653839 51.516327C 96.603638 40.833512 121.550354 43.696366 124.259918 44.044236C 124.086395 46.770539 122.154602 71.80658 109.204804 82.489396C 100.576111 89.60756 88.742706 87.279251 81.902069 78.986985ZM 81.901672 78.986679L 119.453217 48.008866M 115.896942 58.773484C 113.717987 57.807297 107.893616 58.005753 104.652435 60.218949C 107.441345 57.45752 108.743469 51.777146 108.209076 49.454178M 111.709534 68.216431C 108.34079 66.11818 100.127411 64.765076 96.154938 67.229187C 99.329346 63.797669 99.562256 55.476777 98.14267 51.770585M 105.296112 77.192185C 101.045319 74.520951 90.712036 72.748902 85.739807 75.821C 89.701172 71.523545 89.925812 61.041809 88.111389 56.360718M 52.35788 59.798508C 59.198517 51.506241 59.234802 39.446015 50.60611 32.327851C 37.656311 21.645035 12.709595 24.507889 10 24.855759C 10.173584 27.582062 12.105347 52.618103 25.055145 63.300934C 33.683838 70.419083 45.517243 68.090775 52.35788 59.798508ZM 52.358276 59.798203L 14.806732 28.820389M 18.248749 39.585007C 20.427704 38.618821 26.252075 38.817276 29.493256 41.030472C 26.704346 38.269043 25.402222 32.588669 25.936615 30.265702M 22.436157 49.027954C 25.804901 46.929703 34.01828 45.5766 37.990753 48.040711C 34.816345 44.609192 34.583435 36.2883 36.003021 32.582108M 28.850525 58.003724C 33.101318 55.332489 43.434601 53.56044 48.40683 56.632538C 44.445465 52.335083 44.220825 41.853348 46.035248 37.172257M 51.387299 95.102433C 46.466461 91.154984 39.389313 91.230576 35.281799 96.350937C 29.117157 104.035691 30.997406 118.651291 31.223328 120.23848C 32.821747 120.114762 47.497223 118.780075 53.661865 111.095322C 57.769409 105.974961 56.308136 99.049912 51.387299 95.102433ZM 51.387421 95.102646L 35.290192 115.169175M 43.840088 113.64885C 42.690033 111.857499 41.903961 107.462326 43.196472 105.313645C 41.379242 107.041397 36.918182 107.227341 34.920014 106.493241M 49.870636 108.45662C 48.420654 106.217728 47.404022 100.740982 48.999939 98.077164C 46.745697 100.212876 41.178894 100.408432 38.678803 99.478592M 78.847412 34.676041C 74.016602 30.618866 72.711517 23.66269 76.933197 18.636032C 83.269165 11.091935 97.970947 10.087738 99.571747 10C 99.761902 11.591889 101.312897 26.246079 94.976929 33.790192C 90.755249 38.816849 83.678192 38.733216 78.847412 34.676041ZM 78.846985 34.676056L 95.391602 14.976761M 95.568451 23.65828C 93.587311 22.879395 89.1232 22.964951 87.267639 24.651429C 88.608063 22.532319 87.921082 18.120575 86.811615 16.303788M 91.651184 30.586014C 89.172638 29.600159 83.602783 29.67038 81.301056 31.754837C 82.956482 29.127579 82.063416 23.629425 80.664154 21.358475M 68.670382 60.242416C 68.670382 50.042516 72.089782 42.089316 78.723482 34.727616C 69.362682 42.788616 65.372582 50.855016 65.372582 63.304816L 65.220282 73.870216C 64.137182 70.628516 59.716482 63.648616 51.982182 59.720216C 59.656582 65.787016 65.065382 78.325516 65.065382 84.614116L 64.937282 93.501816C 63.564482 90.331016 58.043282 86.476316 50.837982 95.874916C 59.899682 86.070016 64.791782 97.715616 64.791782 103.595616L 64.130482 149.465816L 69.862182 149.465816L 69.208982 103.721816C 69.208982 97.476216 74.636782 84.948116 82.277682 78.907916C 74.581782 82.816816 70.166682 89.746916 69.055982 93.009316L 68.670382 60.242416Z"></path></g></g></g><g id="g-root-sy_3_cu_1_4njtbhz0hpn3-stroke" data-item-order="-260859" transform="translate(398.1484375, 338)"><g id="sy_3_cu_1_4njtbhz0hpn3-stroke" fill="none" stroke-linecap="round" stroke-linejoin="round" stroke-miterlimit="4" stroke="#f4f4f4" stroke-width="2"><g><path d="M 10.086501 13.3142C 9.6373 11.631 10.994301 10 12.844 10L 90.8563 10C 92.706001 10 94.063 11.631 93.613901 13.3142L 91.834901 19.9809C 91.5182 21.1676 90.3814 22 89.077401 22L 14.623 22C 13.3189 22 12.1821 21.1676 11.8655 19.9809L 10.086501 13.3142ZM 15.836914 22L 87.470914 22L 77.694515 79.7212C 77.428715 81.0462 76.262115 82 74.907114 82L 28.400714 82C 27.045714 82 25.879014 81.0462 25.613315 79.7212L 15.836914 22Z"></path></g></g></g><g id="g-root-sy_2_cu_1ut0v1pz0hr0g-stroke" data-item-order="-260855" transform="translate(227.16775512695312, 246.8966064453125)"><g id="sy_2_cu_1ut0v1pz0hr0g-stroke" fill="none" stroke-linecap="round" stroke-linejoin="round" stroke-miterlimit="4" stroke="#43dd93" stroke-width="2"><g><path d="M 57.099457 45.548294C 50.25882 37.256027 50.222534 25.1958 58.851227 18.077636C 71.801026 7.394821 96.747742 10.257675 99.457337 10.605545C 99.283753 13.331848 97.35199 38.367904 84.402191 49.050705C 75.773499 56.168869 63.940094 53.840561 57.099457 45.548294ZM 57.09906 45.547989L 94.650604 14.570175M 91.09433 25.334793C 88.915375 24.368606 83.091004 24.567062 79.849823 26.780258C 82.638733 24.018829 83.940857 18.338455 83.406464 16.015487M 86.906922 34.777725C 83.538178 32.679489 75.324799 31.326385 71.352326 33.790512C 74.526734 30.358978 74.759644 22.038086 73.340058 18.331894M 80.4935 43.753494C 76.242706 41.08226 65.909424 39.310196 60.937195 42.382309C 64.89856 38.084854 65.1232 27.603119 63.308777 22.922027M 31.027649 57.824264C 35.85846 53.767074 37.163544 46.810928 32.941864 41.784256C 26.605896 34.240158 11.904099 33.235977 10.303299 33.148239C 10.113144 34.740127 8.562164 49.394302 14.898148 56.9384C 19.119827 61.965072 26.196869 61.881424 31.027649 57.824264ZM 31.028046 57.824264L 14.483444 38.124984M 14.30661 46.806503C 16.287766 46.027633 20.751862 46.113174 22.607437 47.799637C 21.266983 45.680557 21.953995 41.268783 23.063446 39.452011M 18.223877 53.734237C 20.702423 52.748398 26.272278 52.818618 28.574005 54.903061C 26.918579 52.275802 27.811646 46.777633 29.210907 44.506698M 57.47496 45.469589C 50.02096 51.362089 44.49366 61.969489 44.49366 69.824589L 45.05946 101.103789L 40.74906 101.103789L 40.91526 78.435689C 41.01466 72.047789 36.67036 64.001889 31.15036 57.876189C 38.49966 64.205089 40.41016 67.978789 41.45666 70.046289C 43.37256 59.271689 47.10786 50.735189 57.47496 45.469589Z"></path></g></g></g><g id="g-root-sy_2_cu_1_18mjtilz0hq89-stroke" data-item-order="-260853" transform="translate(218.1494140625, 338.000244140625)"><g id="sy_2_cu_1_18mjtilz0hq89-stroke" fill="none" stroke-linecap="round" stroke-linejoin="round" stroke-miterlimit="4" stroke="#f4f4f4" stroke-width="2"><g><path d="M 10.0865 13.3142C 9.6373 11.631 10.9943 10 12.844 10L 90.8563 10C 92.706 10 94.063 11.631 93.6139 13.3142L 91.8349 19.9809C 91.5182 21.1676 90.3814 22 89.0774 22L 14.623 22C 13.3189 22 12.1821 21.1676 11.8655 19.9809L 10.0865 13.3142ZM 15.836914 22L 87.470914 22L 77.694514 79.7212C 77.428714 81.0462 76.262114 82 74.907114 82L 28.400714 82C 27.045714 82 25.879014 81.0462 25.613314 79.7212L 15.836914 22Z"></path></g></g></g><g id="g-root-sy_1_cu_i099v1z0hq8a-stroke" data-item-order="-260849" transform="translate(45.18135070800781, 298.794189453125)"><g id="sy_1_cu_i099v1z0hq8a-stroke" fill="none" stroke-linecap="round" stroke-linejoin="round" stroke-miterlimit="4" stroke="#4f91fc" stroke-width="2"><g><path d="M 58.517131 16.041932C 59.625003 11.907288 63.527233 9.108155 67.829563 10.260987C 74.286579 11.99112 79.123912 20.742005 79.637294 21.70105C 78.713192 22.274842 70.148479 27.434723 63.691455 25.70459C 59.389125 24.551789 57.409252 20.176575 58.517131 16.041932ZM 58.517597 16.041535L 75.378215 20.559327M 69.802387 21.92157C 69.738597 20.896943 68.790485 18.963562 67.674999 18.496766C 68.874446 18.650238 70.66222 17.449952 71.22977 16.594483M 64.32423 21.050873C 64.252056 19.812592 63.126873 17.479462 61.795703 16.919648C 63.228458 17.100342 65.369426 15.642487 66.051067 14.606202M 31.120159 16.041932C 30.012287 11.907288 26.110057 9.108155 21.807727 10.260987C 15.350711 11.99112 10.513374 20.742005 10 21.70105C 10.924095 22.274842 19.488811 27.434723 25.945835 25.70459C 30.248165 24.551789 32.228038 20.176575 31.120159 16.041932ZM 31.119693 16.041535L 14.259075 20.559327M 19.834903 21.92157C 19.898693 20.896943 20.846805 18.963562 21.962291 18.496766C 20.762844 18.650238 18.97507 17.449952 18.40752 16.594483M 25.31306 21.050873C 25.385234 19.812592 26.510417 17.479462 27.841587 16.919648C 26.408832 17.100342 24.267864 15.642487 23.586223 14.606202M 44.819115 21.55758C 43.418515 18.37408 38.784015 13.70878 30.753215 16.20768C 38.990515 14.50788 43.462715 22.59158 43.462715 26.87328L 43.310015 48.45248L 46.199215 48.45248L 46.175615 26.87328C 46.199215 22.13448 50.647815 14.50788 58.885115 16.20768C 50.854315 13.70878 46.219815 18.37408 44.819115 21.55758Z"></path></g></g></g><g id="g-root-sy_1_cu_1_4pf8ktz0honf-stroke" data-item-order="-260847" transform="translate(38.1494140625, 338.00006103515625)"><g id="sy_1_cu_1_4pf8ktz0honf-stroke" fill="none" stroke-linecap="round" stroke-linejoin="round" stroke-miterlimit="4" stroke="#f4f4f4" stroke-width="2"><g><path d="M 10.086504 13.3142C 9.637304 11.631 10.994304 10 12.844004 10L 90.856304 10C 92.706004 10 94.063004 11.631 93.613904 13.3142L 91.834904 19.9809C 91.518204 21.1676 90.381404 22 89.077404 22L 14.623004 22C 13.318904 22 12.182104 21.1676 11.865504 19.9809L 10.086504 13.3142ZM 15.836918 22L 87.470918 22L 77.694518 79.7212C 77.428718 81.0462 76.262118 82 74.907118 82L 28.400718 82C 27.045718 82 25.879018 81.0462 25.613318 79.7212L 15.836918 22Z"></path></g></g></g><g id="g-root-tx_raliseru_8ydir1z0j3m1-stroke" data-item-order="0" transform="translate(296, 38)"></g><g id="g-root-ic_time_hznuq5yr1szy-stroke" data-item-order="0" transform="translate(62, 362.00006103515625)"><g id="ic_time_hznuq5yr1szy-stroke" fill="none" stroke-linecap="round" stroke-linejoin="round" stroke-miterlimit="4" stroke="#4f91fc" stroke-width="2"><g><path d="M 28.224998 11.42511C 28.224998 15.625105 34.224998 19.075119 42.625 19.075119L 44.724998 19.075119M 44.724998 23.575075C 29.875 23.575075 18.475031 18.475075 18.475031 12.325075M 32.725151 27.625151C 18.63142 28.82515 11.125 33.32515 11.125 38.57515M 28.224998 44.574997C 28.224998 44.275002 28.224998 43.824997 28.375 43.525002M 26.575001 35.125C 21.624985 37.074997 18.625 39.925003 18.625 42.925003M 43.224998 27.92515L 44.724998 27.92515M 11.125 16.675104C 11.125 21.925104 18.624985 26.42515 32.724998 27.625151M 10 10M 38.125 44.574997L 31.375 40.074997L 31.375 33.625L 38.125 37.824997L 38.125 44.574997ZM 10 10M 38.125 44.574997L 44.875 40.074997L 44.875 33.625L 38.125 37.824997L 38.125 44.574997ZM 10 10M 31.375 33.625L 38.125 29.575001M 10 10M 44.875 33.625L 38.125 29.575001"></path></g></g></g><g id="g-root-ic_3_m9v331wipjij-stroke" data-item-order="0" transform="translate(242, 362)"><g id="ic_3_m9v331wipjij-stroke" fill="none" stroke-linecap="round" stroke-linejoin="round" stroke-miterlimit="4" stroke="#43dd93" stroke-width="2"><g><path d="M 16.670904 15.073855L 26.284599 15.073855M 29.715401 15.073855L 39.329048 15.073855M 24.399536 15.073855L 24.399536 32.698452C 24.399536 33.473351 24.091721 34.21645 23.543785 34.7644C 22.995865 35.312351 22.25272 35.620148 21.47785 35.620148C 20.702965 35.620148 19.95982 35.312351 19.4119 34.7644C 18.863979 34.21645 18.55615 33.473351 18.55615 32.698452L 18.55615 15.073855M 37.444 15.073855L 37.444 32.698452C 37.444 33.473351 37.1362 34.21645 36.588249 34.7644C 36.040302 35.312351 35.297199 35.620148 34.522301 35.620148C 33.747398 35.620148 33.004299 35.312351 32.456348 34.7644C 31.908401 34.21645 31.600601 33.473351 31.600601 32.698452L 31.600601 15.073855M 41.46505 19.95142L 42.8992 19.95142L 42.8992 40.87915L 13.10107 40.87915L 13.10107 19.95142L 14.906981 19.95142M 11.387207 40.878849L 44.612801 40.878849M 18.691645 25.149099C 21.335979 24.73579 22.233145 25.820801 24.169436 25.751949M 31.966 29.37775C 34.610352 28.919651 35.5075 30.121901 37.443851 30.045549"></path></g></g></g><g id="g-root-ic_arch_qqa0bxz0lxcc-stroke" data-item-order="0" transform="translate(422, 362)"><g id="ic_arch_qqa0bxz0lxcc-stroke" fill="none" stroke-linecap="round" stroke-linejoin="round" stroke-miterlimit="4" stroke="#a6da37" stroke-width="2"><g><path d="M 27.849998 31.825001L 27.849998 35.125M 41.724998 35.125C 41.724998 34.224998 41.125 33.625 40.224998 33.625L 15.47503 33.625C 14.57503 33.625 13.97503 34.224998 13.97503 35.125M 25.75 23.575001L 25.75 12.625C 25.75 11.725 26.349998 11.125 27.25 11.125L 28.75 11.125C 29.650002 11.125 30.25 11.725 30.25 12.625L 30.25 23.424999M 39.25 26.575001C 39.25 27.474998 38.650002 28.075001 37.75 28.075001L 18.25 28.075001C 17.35 28.075001 16.75 27.474998 16.75 26.575001L 16.75 25.075001C 16.75 24.174986 17.35 23.574986 18.25 23.574986L 37.75 23.574986C 38.650002 23.574986 39.25 24.174986 39.25 25.075001L 39.25 26.575001ZM 30.25 14.125C 34.150002 15.175 37 18.625 37 22.825001L 37 23.575001M 25.75 14.125C 21.85 15.175 19 18.625 19 22.825001L 19 23.575001M 17.125 44.875L 11.125 44.875L 11.125 41.875L 14.125 38.875L 17.125 41.875L 17.125 44.875ZM 30.625 44.875L 24.625 44.875L 24.625 41.875L 27.625 38.875L 30.625 41.875L 30.625 44.875ZM 44.875 44.875L 38.875 44.875L 38.875 41.875L 41.875 38.875L 44.875 41.875L 44.875 44.875Z"></path></g></g></g><g id="g-root-ic_box_18isyzxz0kjrf-stroke" data-item-order="0" transform="translate(602, 362)"><g id="ic_box_18isyzxz0kjrf-stroke" fill="none" stroke-linecap="round" stroke-linejoin="round" stroke-miterlimit="4" stroke="#f79438" stroke-width="2"><g><path d="M 11.5 37.190502L 28 41.690502M 28 41.690502L 44.5 37.190502M 11.5 37.190502L 19.7395 35.031998M 11.5 44.031998L 11.5 37.378002M 44.5 37.378002L 44.5 44.031998M 28 44.781998L 28 41.690502M 33.25 19.093C 33.25 21.9925 32.3755 29.593 28 29.593C 23.6245 29.593 22.75 22 22.75 19.093C 22.75 13.843 28 11.218 28 11.218C 28 11.218 33.25 13.843 33.25 19.093ZM 25.9405 18.9055C 25.940254 20.043104 26.862394 20.965446 28 20.965446C 29.137604 20.965446 30.059746 20.043104 30.0595 18.9055C 30.059746 17.767895 29.137604 16.845552 28 16.845552C 26.862394 16.845552 25.940254 17.767895 25.9405 18.9055M 24.5245 28.241501L 23.3125 28.848999C 22.62722 29.212746 21.999441 29.675745 21.449499 30.223C 21.180353 30.511675 20.764244 30.610613 20.39397 30.473972C 20.023697 30.337332 19.771606 29.99181 19.754499 29.5975C 19.490396 27.288748 20.781635 25.082703 22.924 24.182501M 31.4755 28.241501L 32.6875 28.848999C 33.37278 29.212746 34.000557 29.675745 34.550499 30.223C 34.819645 30.511675 35.235756 30.610613 35.606026 30.473972C 35.976299 30.337332 36.228394 29.99181 36.245499 29.5975C 36.509605 27.288748 35.218369 25.082703 33.076 24.182501M 44.5 37.190502L 36.260498 35.031998M 30.099998 34.010498C 30.099998 35.170002 29.1595 37.974998 28 37.974998C 26.8405 37.974998 25.900002 35.170002 25.900002 34.010498C 25.900002 32.850704 26.840202 31.9105 28 31.9105C 29.159798 31.9105 30.099998 32.850704 30.099998 34.010498Z"></path></g></g></g><g id="g-root-ic_2_1uo12ctz0j4zu-stroke" data-item-order="0" transform="translate(782, 362)"><g id="ic_2_1uo12ctz0j4zu-stroke" fill="none" stroke-linecap="round" stroke-linejoin="round" stroke-miterlimit="4" stroke="#fb6762" stroke-width="2"><g><path d="M 44.875 41.072502C 44.875 43.14357 43.196068 44.822502 41.125 44.822502L 14.875 44.822502C 12.803932 44.822502 11.125 43.14357 11.125 41.072502C 11.125 39.001431 12.803932 37.322502 14.875 37.322502L 41.125 37.322502C 43.196068 37.322502 44.875 39.001431 44.875 41.072502ZM 16 29.575001L 23.049999 29.575001C 23.878428 29.575001 24.549999 30.246572 24.549999 31.075001L 24.549999 37.323997L 24.549999 37.323997L 14.5 37.323997L 14.5 37.323997L 14.5 31.075001C 14.5 30.246572 15.171573 29.575001 16 29.575001ZM 32.154999 29.575001L 39.204998 29.575001C 40.033428 29.575001 40.704998 30.246572 40.704998 31.075001L 40.704998 37.323997L 40.704998 37.323997L 30.655001 37.323997L 30.655001 37.323997L 30.655001 31.075001C 30.655001 30.246572 31.326572 29.575001 32.154999 29.575001ZM 16 41.072502C 16 41.486713 16.335787 41.822502 16.75 41.822502C 17.164213 41.822502 17.5 41.486713 17.5 41.072502C 17.5 40.658287 17.164213 40.322502 16.75 40.322502C 16.335787 40.322502 16 40.658287 16 41.072502M 23.5 41.072502C 23.5 41.486713 23.835787 41.822502 24.25 41.822502C 24.664213 41.822502 25 41.486713 25 41.072502C 25 40.658287 24.664213 40.322502 24.25 40.322502C 23.835787 40.322502 23.5 40.658287 23.5 41.072502M 31.063 41.072502C 31.063 41.486713 31.398787 41.822502 31.813 41.822502C 32.227211 41.822502 32.563 41.486713 32.563 41.072502C 32.563 40.658287 32.227211 40.322502 31.813 40.322502C 31.398787 40.322502 31.063 40.658287 31.063 41.072502M 38.563 41.072502C 38.563 41.486713 38.898788 41.822502 39.313 41.822502C 39.727211 41.822502 40.063 41.486713 40.063 41.072502C 40.063 40.658287 39.727211 40.322502 39.313 40.322502C 38.898788 40.322502 38.563 40.658287 38.563 41.072502M 41.050003 21.85L 30.074501 21.85C 28.675009 21.850393 27.540287 20.715992 27.540287 19.3165C 27.540287 17.917007 28.675009 16.782606 30.074499 16.782999L 41.050003 16.782999M 38.519501 19.3165C 38.519104 20.715992 39.653507 21.850712 41.053001 21.850712C 42.452492 21.850712 43.586891 20.715992 43.586498 19.3165C 43.586891 17.917007 42.452492 16.782288 41.053001 16.782288C 39.653507 16.782288 38.519104 17.917007 38.519497 19.3165M 39.786999 11.1775L 42.741997 17.427999M 38.123501 16.782999L 35.563 11.1775M 23.317001 19.3165L 27.539499 19.3165M 18.25 16.782999L 23.317001 16.782999L 23.317001 21.849998L 18.25 21.849998ZM 20.783501 21.85L 20.783501 26.0725"></path></g></g></g><g id="g-root-tx_ingestio_m97k19z0j56w-stroke" data-item-order="0" transform="translate(14, 434)"></g><g id="g-root-tx_entranem_140hkj1z0j2tr-stroke" data-item-order="0" transform="translate(182, 434)"></g><g id="g-root-tx_gestiond_1ums46lz0j2tq-stroke" data-item-order="0" transform="translate(380, 434)"></g><g id="g-root-tx_dploieme_m7ylv1z0j30t-stroke" data-item-order="0" transform="translate(542, 434)"></g><g id="g-root-tx_orchestr_1lz9a25z0hqtg-stroke" data-item-order="0" transform="translate(722, 434)"></g></g></g><path id="w4otdpqxwhy4p" d="M65.283 12.757a.35.35 0 0 0 .584.157l5.203-5.141-6.183 3.523.396 1.461zm-2.216-11.7a.35.35 0 0 0-.522.305v3.111l3.276-1.868-2.754-1.548zm3.728 2.105l-4.25 2.421v2.445l6.391-3.644-2.141-1.222zm4.708 3.303a.35.35 0 0 0 0-.609l-1.592-.9-7.365 4.199v1.782a.35.35 0 0 0 .523.305l8.435-4.777z M44.542 2.513c0-.433.355-.783.792-.783s.792.35.792.783-.355.783-.792.783-.792-.35-.792-.783zm59.171 0c0-.433.355-.783.792-.783s.792.35.792.783-.355.783-.792.783-.792-.35-.792-.783zm-85.951 7.636h-1.27v-.487c-.276.201-.864.609-1.881.609-1.202 0-2.274-.794-2.137-2.078.118-1.106 1.153-1.584 1.848-1.727l2.17-.345c0-.539-.29-.956-1.064-1.006s-1.21.305-1.571 1.017l-1.124-.605c1.218-2.631 5.029-1.764 5.029.414v4.207zm-1.27-2.86c.006.396-.062 1.112-.819 1.59-.587.37-1.841.299-1.903-.395-.049-.555.461-.791.906-.898l1.816-.297zm72.662 2.86h-1.27v-.487c-.276.201-.864.609-1.881.609-1.202 0-2.274-.794-2.137-2.078.118-1.106 1.153-1.584 1.848-1.727l2.17-.345c0-.539-.29-.956-1.064-1.006s-1.21.305-1.571 1.017l-1.124-.605c1.218-2.631 5.029-1.764 5.029.414v4.207zm-1.27-2.86c.006.396-.062 1.112-.82 1.59-.587.37-1.841.299-1.903-.395-.049-.555.461-.791.906-.898l1.816-.297zM99.096 10.149H97.85v-8.45h1.246v4.895l2.68-2.559h1.738l-2.633 2.535 2.715 3.578h-1.556l-2.077-2.707-.867.844v1.863zm6.053-6.114h-1.255v6.113h1.255V4.035zm-59.2 0h-1.255v6.113h1.255V4.035zm5.584 6.113V1.697h1.255v2.695c.361-.346 1-.485 1.47-.485 1.452 0 2.477 1.082 2.457 2.448v3.792h-1.27v-3.68c0-.408-.214-1.339-1.315-1.339-.968 0-1.342.756-1.342 1.339v3.681h-1.255zm-4.76-4.894V4.039h.621a.45.45 0 0 0 .45-.45v-.855h1.251v1.305h1.309v1.215h-1.309v3.109c0 .293.105.664.648.664.365 0 .531-.035.736-.07v1.137s-.361.113-.857.113c-1.398 0-1.777-1.051-1.777-1.788V5.254h-1.071zM36.528 4.039h-1.394l2.191 6.106h1.125l1.234-3.918 1.238 3.918h1.129l2.188-6.106h-1.383l-1.359 3.93-1.256-3.93h-1.124l-1.242 3.957-1.348-3.957zM26.212 7.141c-.02 1.566 1.187 3.129 3.223 3.129 1.566 0 2.383-.918 2.734-1.719L31.172 8c-.315.399-.801 1.094-1.738 1.094-1.145 0-1.825-.781-1.891-1.52h4.625c.074-.284.148-.995-.03-1.559-.336-1.064-1.221-2.102-2.839-2.102s-3.088 1.152-3.088 3.227zm1.363-.75h3.348c-.055-.43-.566-1.301-1.623-1.301a1.79 1.79 0 0 0-1.725 1.301zm-8.758.75c.038 1.758 1.277 3.133 3.145 3.133 1.074 0 1.723-.477 1.961-.672v.547h1.242V1.703h-1.258v2.888c-.414-.36-1.062-.68-1.93-.68-1.91 0-3.198 1.473-3.16 3.23zm1.309-.08c0 1.119.723 1.978 1.836 1.978a1.88 1.88 0 0 0 1.94-1.904c0-1.371-1.011-1.99-1.972-1.99s-1.805.798-1.805 1.916zm76.683-.028C96.771 5.275 95.532 3.9 93.664 3.9c-1.074 0-1.723.477-1.961.672v-.547h-1.242v8.22h1.258V9.583c.414.36 1.063.68 1.93.68 1.91 0 3.198-1.473 3.16-3.23zm-1.309.08c0-1.119-.723-1.978-1.836-1.978a1.88 1.88 0 0 0-1.94 1.904c0 1.371 1.011 1.99 1.972 1.99S95.5 8.231 95.5 7.113zM106.441 10.173V4.036h1.254v.382c.361-.346 1-.485 1.47-.485 1.452 0 2.477 1.082 2.457 2.448v3.792h-1.27V6.492c0-.408-.214-1.339-1.315-1.339-.969 0-1.342.756-1.342 1.339v3.681h-1.254zm-30.383-.021V1.824h1.084l4.215 5.777V1.824h1.32v8.328h-1.094l-4.207-5.796v5.796h-1.319zM5.24 10.149H4V2.377h1.014l2.664 3.597 2.654-3.592h1.03v7.766h-1.256V4.762L7.678 8.068 5.24 4.742v5.407z" transform="translate(790.531005859375, 526)" fill="#ababab88" stroke="none"></path></svg>